<svg width="94" height="100" viewBox="0 0 94 100" xmlns="http://www.w3.org/2000/svg"><path d="M91.67 18.736c-1.361.905-33.158 21.516-33.158 21.516L46.604 23.437S78.217 1.628 79.509.761c7.204-4.835 18.293 13.904 12.161 17.975zM87.715 8.613c-3.782-6.552-9.222-3.529-5.192 3.45 3.681 6.375 8.96 3.077 5.192-3.45zM44.738 27.906l7.202 13.899-23.913 16.6-8.864-12.284 4.894-3.486-3.692-3.924-6.379 3.536-5.382-7.543 25.67-17.126 4.803 7.35-8.524 6.319 2.705 4.836 11.48-8.177zM18.12 51.673l3.755 7.549-13.738 9.784L.53 58.97l5.447-4.215 4.505 2.888 7.638-5.97zM53.962 48.6l24.28 48.266-5.32 2.459-17.674-29.847-11.698.668-18.692 28.868-5.164-1.61 21.241-41.075L53.962 48.6zm-1.577 50.456h-6.676l-.994-22.955h9.346l-1.676 22.955z" fill="#FF39B5" fill-rule="nonzero"/></svg>